<?xml version="1.0" encoding="UTF-8" standalone="no"?>
<svg width="440px" height="100px" viewBox="0 0 440 100" version="1.1" xmlns="http://www.w3.org/2000/svg" xmlns:xlink="http://www.w3.org/1999/xlink" xmlns:sketch="http://www.bohemiancoding.com/sketch/ns">
    <!-- Generator: Sketch 3.2.2 (9983) - http://www.bohemiancoding.com/sketch -->
    <title>coolorus_header_light</title>
    <desc>Created with Sketch.</desc>
    <defs>
        <linearGradient x1="50%" y1="0%" x2="50%" y2="100%" id="linearGradient-1">
            <stop stop-color="#3F3F3F" offset="0%"></stop>
            <stop stop-color="#252525" offset="100%"></stop>
        </linearGradient>
    </defs>
    <g id="Page-1" stroke="none" stroke-width="1" fill="none" fill-rule="evenodd" sketch:type="MSPage">
        <g id="coolorus_header_light" sketch:type="MSLayerGroup" transform="translate(13.000000, -3.000000)">
            <path d="M28.3333334,30.8970588 C12.6666667,30.8970588 0,44.4001548 0,60.6731166 C0,77.2923116 12.6666667,90.4491745 28.3333334,90.4491745 C31,90.4491745 33.3333333,90.1029412 35.6666667,89.4104747 C33.3333333,86.9868421 32,83.8707431 32,80.0621776 L32,80.0621776 C30.6666667,80.4084107 29.6666667,80.4084107 28.3333334,80.4084107 C17.9999999,80.4084107 9.33333333,71.4063468 9.33333333,60.6731166 C9.33333333,49.5936532 17.6666667,40.9378225 28.3333334,40.9378225 C39.0000001,40.9378225 47.3333334,49.9398865 47.3333334,60.6731166 C47.3333334,63.0967492 47,65.1741487 46.3333333,67.251548 C49.6666667,67.5977813 52.6666667,69.6751806 54.6666667,72.4450464 C56.3333334,68.6364809 57,64.8279154 57,60.6731166 C56.6666666,44.4001548 44,30.8970588 28.3333334,30.8970588 L28.3333334,30.8970588 L28.3333334,30.8970588 Z M44.3333334,72.4450464 C40.3333333,72.4450464 36.9999999,75.9073787 36.9999999,80.0621776 C36.9999999,84.2169762 40.3333333,87.6793086 44.3333334,87.6793086 C48.3333333,87.6793086 51.6666667,84.2169762 51.6666667,80.0621776 C51.6666667,75.9073787 48.3333333,72.4450464 44.3333334,72.4450464 L44.3333334,72.4450464 L44.3333334,72.4450464 Z" id="coolorus-logo" fill-opacity="0.601723254" fill="#FFFFFF" sketch:type="MSShapeGroup"></path>
            <path d="M28.3333334,29.8970588 C12.6666667,29.8970588 0,43.4001548 0,59.6731166 C0,76.2923116 12.6666667,89.4491745 28.3333334,89.4491745 C31,89.4491745 33.3333333,89.1029412 35.6666667,88.4104747 C33.3333333,85.9868421 32,82.8707431 32,79.0621776 L32,79.0621776 C30.6666667,79.4084107 29.6666667,79.4084107 28.3333334,79.4084107 C17.9999999,79.4084107 9.33333333,70.4063468 9.33333333,59.6731166 C9.33333333,48.5936532 17.6666667,39.9378225 28.3333334,39.9378225 C39.0000001,39.9378225 47.3333334,48.9398865 47.3333334,59.6731166 C47.3333334,62.0967492 47,64.1741487 46.3333333,66.251548 C49.6666667,66.5977813 52.6666667,68.6751806 54.6666667,71.4450464 C56.3333334,67.6364809 57,63.8279154 57,59.6731166 C56.6666666,43.4001548 44,29.8970588 28.3333334,29.8970588 L28.3333334,29.8970588 L28.3333334,29.8970588 Z M44.3333334,71.4450464 C40.3333333,71.4450464 36.9999999,74.9073787 36.9999999,79.0621776 C36.9999999,83.2169762 40.3333333,86.6793086 44.3333334,86.6793086 C48.3333333,86.6793086 51.6666667,83.2169762 51.6666667,79.0621776 C51.6666667,74.9073787 48.3333333,71.4450464 44.3333334,71.4450464 L44.3333334,71.4450464 L44.3333334,71.4450464 Z" id="coolorus-logo-3" fill="url(#linearGradient-1)" sketch:type="MSShapeGroup"></path>
            <path d="M91.344,82.768 C98.128,82.768 103.12,79.824 106.896,75.152 L103.824,73.232 C101.136,76.944 96.464,79.44 91.344,79.44 C81.296,79.44 73.552,71.696 73.552,60.688 C73.552,49.552 81.296,41.936 91.344,41.936 C96.464,41.936 101.136,44.432 103.824,48.144 L106.896,46.16 C103.248,41.616 98.128,38.608 91.344,38.608 C79.248,38.608 69.712,47.568 69.712,60.688 C69.712,73.808 79.248,82.768 91.344,82.768 L91.344,82.768 Z M127.248,82.768 C136.4,82.768 142.16,75.536 142.16,66.512 C142.16,57.488 136.4,50.32 127.248,50.32 C118.224,50.32 112.4,57.488 112.4,66.512 C112.4,75.536 118.224,82.768 127.248,82.768 L127.248,82.768 Z M127.248,79.76 C120.08,79.76 115.984,73.424 115.984,66.512 C115.984,59.664 120.08,53.328 127.248,53.328 C134.544,53.328 138.576,59.664 138.576,66.512 C138.576,73.424 134.544,79.76 127.248,79.76 L127.248,79.76 Z M163.792,82.768 C172.944,82.768 178.704,75.536 178.704,66.512 C178.704,57.488 172.944,50.32 163.792,50.32 C154.768,50.32 148.944,57.488 148.944,66.512 C148.944,75.536 154.768,82.768 163.792,82.768 L163.792,82.768 Z M163.792,79.76 C156.624,79.76 152.528,73.424 152.528,66.512 C152.528,59.664 156.624,53.328 163.792,53.328 C171.088,53.328 175.12,59.664 175.12,66.512 C175.12,73.424 171.088,79.76 163.792,79.76 L163.792,79.76 Z M190.608,82 L190.608,39.312 L187.28,39.312 L187.28,82 L190.608,82 Z M214.032,82.768 C223.184,82.768 228.944,75.536 228.944,66.512 C228.944,57.488 223.184,50.32 214.032,50.32 C205.008,50.32 199.184,57.488 199.184,66.512 C199.184,75.536 205.008,82.768 214.032,82.768 L214.032,82.768 Z M214.032,79.76 C206.864,79.76 202.768,73.424 202.768,66.512 C202.768,59.664 206.864,53.328 214.032,53.328 C221.328,53.328 225.36,59.664 225.36,66.512 C225.36,73.424 221.328,79.76 214.032,79.76 L214.032,79.76 Z M240.848,82 L240.848,59.472 C242.256,56.784 246.48,53.968 249.616,53.968 C250.256,53.968 250.704,53.968 251.28,54.096 L251.28,50.448 C246.992,50.448 243.472,52.944 240.848,56.4 L240.848,51.088 L237.52,51.088 L237.52,82 L240.848,82 Z M282,82 L282,51.088 L278.672,51.088 L278.672,74.64 C276.624,77.392 272.592,79.76 268.624,79.76 C264.144,79.76 261.136,78.096 261.136,72.08 L261.136,51.088 L257.808,51.088 L257.808,72.848 C257.808,79.824 261.2,82.768 267.536,82.768 C272.016,82.768 276.112,80.272 278.672,77.456 L278.672,82 L282,82 Z M301.584,82.768 C309.328,82.768 313.168,78.672 313.168,73.68 C313.168,61.776 293.648,66.512 293.648,58.768 C293.648,55.568 296.592,53.136 301.392,53.136 C305.488,53.136 308.816,54.8 310.608,57.232 L312.464,54.864 C310.224,52.368 306.704,50.32 301.392,50.32 C294.416,50.32 290.384,54.16 290.384,58.896 C290.384,69.968 309.904,65.232 309.904,73.68 C309.904,77.264 306.832,79.952 301.648,79.952 C297.296,79.952 293.648,77.904 291.664,75.408 L289.68,77.904 C292.752,81.296 296.592,82.768 301.584,82.768 L301.584,82.768 Z M364.88,82 L364.88,78.672 L342.416,78.672 C354.768,68.688 364.688,60.112 364.688,50.704 C364.688,42.256 357.52,38.672 351.248,38.672 C345.232,38.672 340.048,41.168 337.04,45.264 L339.536,47.568 C341.84,44.304 345.936,42 351.248,42 C355.92,42 360.976,44.56 360.976,50.704 C360.976,58.96 351.248,67.28 336.72,78.992 L336.72,82 L364.88,82 Z M377.36,82.64 C378.896,82.64 380.24,81.296 380.24,79.76 C380.24,78.288 378.896,77.008 377.36,77.008 C375.824,77.008 374.544,78.288 374.544,79.76 C374.544,81.296 375.824,82.64 377.36,82.64 L377.36,82.64 Z M403.536,82.768 C411.408,82.768 417.936,77.52 417.936,69.008 C417.936,60.112 411.472,55.376 404.304,55.376 C399.888,55.376 396.24,57.296 394.128,59.344 L394.128,42.64 L415.12,42.64 L415.12,39.312 L390.48,39.312 L390.48,61.712 L393.232,62.864 C396.368,59.984 399.696,58.704 403.6,58.704 C409.744,58.704 414.224,62.672 414.224,69.136 C414.224,74.96 409.68,79.44 403.536,79.44 C398.032,79.44 394.32,77.264 391.568,73.36 L389.136,75.792 C392.08,80.016 396.432,82.768 403.536,82.768 L403.536,82.768 Z" id="Coolorus-2.5-2" fill="#000000" sketch:type="MSShapeGroup"></path>
        </g>
    </g>
</svg>