<?xml version="1.0" standalone="no"?>
<!DOCTYPE svg PUBLIC "-//W3C//DTD SVG 1.1//EN" "http://www.w3.org/Graphics/SVG/1.1/DTD/svg11.dtd">
<svg width="100%" height="100%" viewBox="0 0 440 100" version="1.1" xmlns="http://www.w3.org/2000/svg" xmlns:xlink="http://www.w3.org/1999/xlink" xml:space="preserve" style="fill-rule:evenodd;clip-rule:evenodd;stroke-linejoin:round;stroke-miterlimit:1.41421;">
    <g id="coolorus_header_light" transform="matrix(1,0,0,1,13,-3)">
        <path id="coolorus-logo-3" d="M28.333,29.897C12.667,29.897 0,43.4 0,59.673C0,76.292 12.667,89.449 28.333,89.449C31,89.449 33.333,89.103 35.667,88.41C33.333,85.987 32,82.871 32,79.062C30.667,79.408 29.667,79.408 28.333,79.408C18,79.408 9.333,70.406 9.333,59.673C9.333,48.594 17.667,39.938 28.333,39.938C39,39.938 47.333,48.94 47.333,59.673C47.333,62.097 47,64.174 46.333,66.252C49.667,66.598 52.667,68.675 54.667,71.445C56.333,67.636 57,63.828 57,59.673C56.667,43.4 44,29.897 28.333,29.897ZM44.333,71.445C40.333,71.445 37,74.907 37,79.062C37,83.217 40.333,86.679 44.333,86.679C48.333,86.679 51.667,83.217 51.667,79.062C51.667,74.907 48.333,71.445 44.333,71.445Z" style="fill:rgb(61,61,61);"/>
        <path id="Coolorus-2.5-2" d="M91.344,82.768C98.128,82.768 103.12,79.824 106.896,75.152L103.824,73.232C101.136,76.944 96.464,79.44 91.344,79.44C81.296,79.44 73.552,71.696 73.552,60.688C73.552,49.552 81.296,41.936 91.344,41.936C96.464,41.936 101.136,44.432 103.824,48.144L106.896,46.16C103.248,41.616 98.128,38.608 91.344,38.608C79.248,38.608 69.712,47.568 69.712,60.688C69.712,73.808 79.248,82.768 91.344,82.768ZM127.248,82.768C136.4,82.768 142.16,75.536 142.16,66.512C142.16,57.488 136.4,50.32 127.248,50.32C118.224,50.32 112.4,57.488 112.4,66.512C112.4,75.536 118.224,82.768 127.248,82.768ZM127.248,79.76C120.08,79.76 115.984,73.424 115.984,66.512C115.984,59.664 120.08,53.328 127.248,53.328C134.544,53.328 138.576,59.664 138.576,66.512C138.576,73.424 134.544,79.76 127.248,79.76ZM163.792,82.768C172.944,82.768 178.704,75.536 178.704,66.512C178.704,57.488 172.944,50.32 163.792,50.32C154.768,50.32 148.944,57.488 148.944,66.512C148.944,75.536 154.768,82.768 163.792,82.768ZM163.792,79.76C156.624,79.76 152.528,73.424 152.528,66.512C152.528,59.664 156.624,53.328 163.792,53.328C171.088,53.328 175.12,59.664 175.12,66.512C175.12,73.424 171.088,79.76 163.792,79.76ZM190.608,82L190.608,39.312L187.28,39.312L187.28,82L190.608,82ZM214.032,82.768C223.184,82.768 228.944,75.536 228.944,66.512C228.944,57.488 223.184,50.32 214.032,50.32C205.008,50.32 199.184,57.488 199.184,66.512C199.184,75.536 205.008,82.768 214.032,82.768ZM214.032,79.76C206.864,79.76 202.768,73.424 202.768,66.512C202.768,59.664 206.864,53.328 214.032,53.328C221.328,53.328 225.36,59.664 225.36,66.512C225.36,73.424 221.328,79.76 214.032,79.76ZM240.848,82L240.848,59.472C242.256,56.784 246.48,53.968 249.616,53.968C250.256,53.968 250.704,53.968 251.28,54.096L251.28,50.448C246.992,50.448 243.472,52.944 240.848,56.4L240.848,51.088L237.52,51.088L237.52,82L240.848,82ZM282,82L282,51.088L278.672,51.088L278.672,74.64C276.624,77.392 272.592,79.76 268.624,79.76C264.144,79.76 261.136,78.096 261.136,72.08L261.136,51.088L257.808,51.088L257.808,72.848C257.808,79.824 261.2,82.768 267.536,82.768C272.016,82.768 276.112,80.272 278.672,77.456L278.672,82L282,82ZM301.584,82.768C309.328,82.768 313.168,78.672 313.168,73.68C313.168,61.776 293.648,66.512 293.648,58.768C293.648,55.568 296.592,53.136 301.392,53.136C305.488,53.136 308.816,54.8 310.608,57.232L312.464,54.864C310.224,52.368 306.704,50.32 301.392,50.32C294.416,50.32 290.384,54.16 290.384,58.896C290.384,69.968 309.904,65.232 309.904,73.68C309.904,77.264 306.832,79.952 301.648,79.952C297.296,79.952 293.648,77.904 291.664,75.408L289.68,77.904C292.752,81.296 296.592,82.768 301.584,82.768ZM364.88,82L364.88,78.672L342.416,78.672C354.768,68.688 364.688,60.112 364.688,50.704C364.688,42.256 357.52,38.672 351.248,38.672C345.232,38.672 340.048,41.168 337.04,45.264L339.536,47.568C341.84,44.304 345.936,42 351.248,42C355.92,42 360.976,44.56 360.976,50.704C360.976,58.96 351.248,67.28 336.72,78.992L336.72,82L364.88,82ZM377.36,82.64C378.896,82.64 380.24,81.296 380.24,79.76C380.24,78.288 378.896,77.008 377.36,77.008C375.824,77.008 374.544,78.288 374.544,79.76C374.544,81.296 375.824,82.64 377.36,82.64ZM403.536,82.768C411.408,82.768 417.936,77.52 417.936,69.008C417.936,60.112 411.472,55.376 404.304,55.376C399.888,55.376 396.24,57.296 394.128,59.344L394.128,42.64L415.12,42.64L415.12,39.312L390.48,39.312L390.48,61.712L393.232,62.864C396.368,59.984 399.696,58.704 403.6,58.704C409.744,58.704 414.224,62.672 414.224,69.136C414.224,74.96 409.68,79.44 403.536,79.44C398.032,79.44 394.32,77.264 391.568,73.36L389.136,75.792C392.08,80.016 396.432,82.768 403.536,82.768Z" style="fill:black;"/>
    </g>
</svg>
