<?xml version="1.0" standalone="no"?>
<!DOCTYPE svg PUBLIC "-//W3C//DTD SVG 1.1//EN" "http://www.w3.org/Graphics/SVG/1.1/DTD/svg11.dtd">
<svg width="100%" height="100%" viewBox="0 0 440 209" version="1.1" xmlns="http://www.w3.org/2000/svg" xmlns:xlink="http://www.w3.org/1999/xlink" xml:space="preserve" style="fill-rule:evenodd;clip-rule:evenodd;stroke-linejoin:round;stroke-miterlimit:1.41421;">
    <g id="coolorus_header_dark-2" transform="matrix(1,0,0,1,42,6)">
        <path id="coolorus-logo-2" d="M166.678,2.897C136.444,2.897 112,28.973 112,60.397C112,92.49 136.444,117.897 166.678,117.897C171.825,117.897 176.327,117.228 180.83,115.891C176.327,111.211 173.754,105.194 173.754,97.839C171.181,98.508 169.251,98.508 166.678,98.508C146.737,98.508 130.012,81.124 130.012,60.397C130.012,39.002 146.094,22.287 166.678,22.287C187.263,22.287 203.345,39.67 203.345,60.397C203.345,65.077 202.702,69.089 201.415,73.101C207.848,73.769 213.637,77.781 217.497,83.13C220.713,75.775 222,68.42 222,60.397C221.357,28.973 196.912,2.897 166.678,2.897ZM197.556,83.13C189.836,83.13 183.404,89.816 183.404,97.839C183.404,105.862 189.836,112.548 197.556,112.548C205.275,112.548 211.708,105.862 211.708,97.839C211.708,89.816 205.275,83.13 197.556,83.13Z" style="fill:rgb(170,170,170);"/>
        <path id="Coolorus-2.5-3" d="M25.344,197.768C32.128,197.768 37.12,194.824 40.896,190.152L37.824,188.232C35.136,191.944 30.464,194.44 25.344,194.44C15.296,194.44 7.552,186.696 7.552,175.688C7.552,164.552 15.296,156.936 25.344,156.936C30.464,156.936 35.136,159.432 37.824,163.144L40.896,161.16C37.248,156.616 32.128,153.608 25.344,153.608C13.248,153.608 3.712,162.568 3.712,175.688C3.712,188.808 13.248,197.768 25.344,197.768ZM61.248,197.768C70.4,197.768 76.16,190.536 76.16,181.512C76.16,172.488 70.4,165.32 61.248,165.32C52.224,165.32 46.4,172.488 46.4,181.512C46.4,190.536 52.224,197.768 61.248,197.768ZM61.248,194.76C54.08,194.76 49.984,188.424 49.984,181.512C49.984,174.664 54.08,168.328 61.248,168.328C68.544,168.328 72.576,174.664 72.576,181.512C72.576,188.424 68.544,194.76 61.248,194.76ZM97.792,197.768C106.944,197.768 112.704,190.536 112.704,181.512C112.704,172.488 106.944,165.32 97.792,165.32C88.768,165.32 82.944,172.488 82.944,181.512C82.944,190.536 88.768,197.768 97.792,197.768ZM97.792,194.76C90.624,194.76 86.528,188.424 86.528,181.512C86.528,174.664 90.624,168.328 97.792,168.328C105.088,168.328 109.12,174.664 109.12,181.512C109.12,188.424 105.088,194.76 97.792,194.76ZM124.608,197L124.608,154.312L121.28,154.312L121.28,197L124.608,197ZM148.032,197.768C157.184,197.768 162.944,190.536 162.944,181.512C162.944,172.488 157.184,165.32 148.032,165.32C139.008,165.32 133.184,172.488 133.184,181.512C133.184,190.536 139.008,197.768 148.032,197.768ZM148.032,194.76C140.864,194.76 136.768,188.424 136.768,181.512C136.768,174.664 140.864,168.328 148.032,168.328C155.328,168.328 159.36,174.664 159.36,181.512C159.36,188.424 155.328,194.76 148.032,194.76ZM174.848,197L174.848,174.472C176.256,171.784 180.48,168.968 183.616,168.968C184.256,168.968 184.704,168.968 185.28,169.096L185.28,165.448C180.992,165.448 177.472,167.944 174.848,171.4L174.848,166.088L171.52,166.088L171.52,197L174.848,197ZM216,197L216,166.088L212.672,166.088L212.672,189.64C210.624,192.392 206.592,194.76 202.624,194.76C198.144,194.76 195.136,193.096 195.136,187.08L195.136,166.088L191.808,166.088L191.808,187.848C191.808,194.824 195.2,197.768 201.536,197.768C206.016,197.768 210.112,195.272 212.672,192.456L212.672,197L216,197ZM235.584,197.768C243.328,197.768 247.168,193.672 247.168,188.68C247.168,176.776 227.648,181.512 227.648,173.768C227.648,170.568 230.592,168.136 235.392,168.136C239.488,168.136 242.816,169.8 244.608,172.232L246.464,169.864C244.224,167.368 240.704,165.32 235.392,165.32C228.416,165.32 224.384,169.16 224.384,173.896C224.384,184.968 243.904,180.232 243.904,188.68C243.904,192.264 240.832,194.952 235.648,194.952C231.296,194.952 227.648,192.904 225.664,190.408L223.68,192.904C226.752,196.296 230.592,197.768 235.584,197.768ZM298.88,197L298.88,193.672L276.416,193.672C288.768,183.688 298.688,175.112 298.688,165.704C298.688,157.256 291.52,153.672 285.248,153.672C279.232,153.672 274.048,156.168 271.04,160.264L273.536,162.568C275.84,159.304 279.936,157 285.248,157C289.92,157 294.976,159.56 294.976,165.704C294.976,173.96 285.248,182.28 270.72,193.992L270.72,197L298.88,197ZM311.36,197.64C312.896,197.64 314.24,196.296 314.24,194.76C314.24,193.288 312.896,192.008 311.36,192.008C309.824,192.008 308.544,193.288 308.544,194.76C308.544,196.296 309.824,197.64 311.36,197.64ZM337.536,197.768C345.408,197.768 351.936,192.52 351.936,184.008C351.936,175.112 345.472,170.376 338.304,170.376C333.888,170.376 330.24,172.296 328.128,174.344L328.128,157.64L349.12,157.64L349.12,154.312L324.48,154.312L324.48,176.712L327.232,177.864C330.368,174.984 333.696,173.704 337.6,173.704C343.744,173.704 348.224,177.672 348.224,184.136C348.224,189.96 343.68,194.44 337.536,194.44C332.032,194.44 328.32,192.264 325.568,188.36L323.136,190.792C326.08,195.016 330.432,197.768 337.536,197.768Z" style="fill:rgb(240,240,240);"/>
    </g>
</svg>
