<?xml version="1.0" standalone="no"?>
<!DOCTYPE svg PUBLIC "-//W3C//DTD SVG 1.1//EN" "http://www.w3.org/Graphics/SVG/1.1/DTD/svg11.dtd">
<svg width="100%" height="100%" viewBox="0 0 440 100" version="1.1" xmlns="http://www.w3.org/2000/svg" xmlns:xlink="http://www.w3.org/1999/xlink" xml:space="preserve" style="fill-rule:evenodd;clip-rule:evenodd;stroke-linejoin:round;stroke-miterlimit:1.41421;">
    <g id="coolorus_header_dark">
        <path id="coolorus-logo-2" d="M41.333,26.897C25.667,26.897 13,40.4 13,56.673C13,73.292 25.667,86.449 41.333,86.449C44,86.449 46.333,86.103 48.667,85.411C46.333,82.987 45,79.871 45,76.062C43.667,76.409 42.667,76.409 41.333,76.409C31,76.409 22.333,67.406 22.333,56.673C22.333,45.594 30.667,36.938 41.333,36.938C52,36.938 60.333,45.94 60.333,56.673C60.333,59.097 60,61.174 59.333,63.252C62.667,63.598 65.667,65.675 67.667,68.445C69.333,64.637 70,60.828 70,56.673C69.667,40.4 57,26.897 41.333,26.897L41.333,26.897ZM57.333,68.445C53.333,68.445 50,71.907 50,76.062C50,80.217 53.333,83.679 57.333,83.679C61.333,83.679 64.667,80.217 64.667,76.062C64.667,71.907 61.333,68.445 57.333,68.445L57.333,68.445Z" style="fill:rgb(170,170,170);"/>
        <path id="Coolorus-2.5-3" d="M104.344,79.768C111.128,79.768 116.12,76.824 119.896,72.152L116.824,70.232C114.136,73.944 109.464,76.44 104.344,76.44C94.296,76.44 86.552,68.696 86.552,57.688C86.552,46.552 94.296,38.936 104.344,38.936C109.464,38.936 114.136,41.432 116.824,45.144L119.896,43.16C116.248,38.616 111.128,35.608 104.344,35.608C92.248,35.608 82.712,44.568 82.712,57.688C82.712,70.808 92.248,79.768 104.344,79.768ZM140.248,79.768C149.4,79.768 155.16,72.536 155.16,63.512C155.16,54.488 149.4,47.32 140.248,47.32C131.224,47.32 125.4,54.488 125.4,63.512C125.4,72.536 131.224,79.768 140.248,79.768ZM140.248,76.76C133.08,76.76 128.984,70.424 128.984,63.512C128.984,56.664 133.08,50.328 140.248,50.328C147.544,50.328 151.576,56.664 151.576,63.512C151.576,70.424 147.544,76.76 140.248,76.76ZM176.792,79.768C185.944,79.768 191.704,72.536 191.704,63.512C191.704,54.488 185.944,47.32 176.792,47.32C167.768,47.32 161.944,54.488 161.944,63.512C161.944,72.536 167.768,79.768 176.792,79.768ZM176.792,76.76C169.624,76.76 165.528,70.424 165.528,63.512C165.528,56.664 169.624,50.328 176.792,50.328C184.088,50.328 188.12,56.664 188.12,63.512C188.12,70.424 184.088,76.76 176.792,76.76ZM203.608,79L203.608,36.312L200.28,36.312L200.28,79L203.608,79ZM227.032,79.768C236.184,79.768 241.944,72.536 241.944,63.512C241.944,54.488 236.184,47.32 227.032,47.32C218.008,47.32 212.184,54.488 212.184,63.512C212.184,72.536 218.008,79.768 227.032,79.768ZM227.032,76.76C219.864,76.76 215.768,70.424 215.768,63.512C215.768,56.664 219.864,50.328 227.032,50.328C234.328,50.328 238.36,56.664 238.36,63.512C238.36,70.424 234.328,76.76 227.032,76.76ZM253.848,79L253.848,56.472C255.256,53.784 259.48,50.968 262.616,50.968C263.256,50.968 263.704,50.968 264.28,51.096L264.28,47.448C259.992,47.448 256.472,49.944 253.848,53.4L253.848,48.088L250.52,48.088L250.52,79L253.848,79ZM295,79L295,48.088L291.672,48.088L291.672,71.64C289.624,74.392 285.592,76.76 281.624,76.76C277.144,76.76 274.136,75.096 274.136,69.08L274.136,48.088L270.808,48.088L270.808,69.848C270.808,76.824 274.2,79.768 280.536,79.768C285.016,79.768 289.112,77.272 291.672,74.456L291.672,79L295,79ZM314.584,79.768C322.328,79.768 326.168,75.672 326.168,70.68C326.168,58.776 306.648,63.512 306.648,55.768C306.648,52.568 309.592,50.136 314.392,50.136C318.488,50.136 321.816,51.8 323.608,54.232L325.464,51.864C323.224,49.368 319.704,47.32 314.392,47.32C307.416,47.32 303.384,51.16 303.384,55.896C303.384,66.968 322.904,62.232 322.904,70.68C322.904,74.264 319.832,76.952 314.648,76.952C310.296,76.952 306.648,74.904 304.664,72.408L302.68,74.904C305.752,78.296 309.592,79.768 314.584,79.768L314.584,79.768ZM377.88,79L377.88,75.672L355.416,75.672C367.768,65.688 377.688,57.112 377.688,47.704C377.688,39.256 370.52,35.672 364.248,35.672C358.232,35.672 353.048,38.168 350.04,42.264L352.536,44.568C354.84,41.304 358.936,39 364.248,39C368.92,39 373.976,41.56 373.976,47.704C373.976,55.96 364.248,64.28 349.72,75.992L349.72,79L377.88,79ZM390.36,79.64C391.896,79.64 393.24,78.296 393.24,76.76C393.24,75.288 391.896,74.008 390.36,74.008C388.824,74.008 387.544,75.288 387.544,76.76C387.544,78.296 388.824,79.64 390.36,79.64ZM416.536,79.768C424.408,79.768 430.936,74.52 430.936,66.008C430.936,57.112 424.472,52.376 417.304,52.376C412.888,52.376 409.24,54.296 407.128,56.344L407.128,39.64L428.12,39.64L428.12,36.312L403.48,36.312L403.48,58.712L406.232,59.864C409.368,56.984 412.696,55.704 416.6,55.704C422.744,55.704 427.224,59.672 427.224,66.136C427.224,71.96 422.68,76.44 416.536,76.44C411.032,76.44 407.32,74.264 404.568,70.36L402.136,72.792C405.08,77.016 409.432,79.768 416.536,79.768Z" style="fill:rgb(240,240,240);"/>
    </g>
</svg>
