<?xml version="1.0" standalone="no"?><!DOCTYPE svg PUBLIC "-//W3C//DTD SVG 1.1//EN" "http://www.w3.org/Graphics/SVG/1.1/DTD/svg11.dtd"><svg width="100%" height="100%" viewBox="0 0 440 100" version="1.1" xmlns="http://www.w3.org/2000/svg" xmlns:xlink="http://www.w3.org/1999/xlink" xml:space="preserve" style="fill-rule:evenodd;clip-rule:evenodd;stroke-linejoin:round;stroke-miterlimit:1.41421;"><g id="coolorus_header_dark"><path id="coolorus-logo" d="M41.3333,24.8971c-15.6667,0 -28.3333,13.5031 -28.3333,29.7761c0,16.6192 12.6667,29.7761 28.3333,29.7761c2.66667,0 5,-0.346233 7.33333,-1.0387c-2.33333,-2.42363 -3.66667,-5.53973 -3.66667,-9.3483c-1.33333,0.346233 -2.33333,0.346233 -3.66667,0.346233c-10.3333,0 -19,-9.00206 -19,-19.7353c0,-11.0795 8.33333,-19.7353 19,-19.7353c10.6667,0 19,9.00206 19,19.7353c0,2.42363 -0.333333,4.50103 -1,6.57843c3.33333,0.346233 6.33333,2.42363 8.33333,5.1935c1.66667,-3.80857 2.33333,-7.61713 2.33333,-11.7719c-0.333333,-16.273 -13,-29.7761 -28.6667,-29.7761ZM57.3333,66.445c-4,0 -7.33333,3.46233 -7.33333,7.61713c0,4.1548 3.33333,7.61713 7.33333,7.61713c4,0 7.33333,-3.46233 7.33333,-7.61713c0,-4.1548 -3.33333,-7.61713 -7.33333,-7.61713Z" style="fill:#000;fill-opacity:0.6;"/><path id="coolorus-logo-2" d="M41.3333,26.8971c-15.6667,0 -28.3333,13.5031 -28.3333,29.7761c0,16.6192 12.6667,29.7761 28.3333,29.7761c2.66667,0 5,-0.346233 7.33333,-1.0387c-2.33333,-2.42363 -3.66667,-5.53973 -3.66667,-9.3483c-1.33333,0.346233 -2.33333,0.346233 -3.66667,0.346233c-10.3333,0 -19,-9.00206 -19,-19.7353c0,-11.0795 8.33333,-19.7353 19,-19.7353c10.6667,0 19,9.00206 19,19.7353c0,2.42363 -0.333333,4.50103 -1,6.57843c3.33333,0.346233 6.33333,2.42363 8.33333,5.1935c1.66667,-3.80857 2.33333,-7.61713 2.33333,-11.7719c-0.333333,-16.273 -13,-29.7761 -28.6667,-29.7761ZM57.3333,68.445c-4,0 -7.33333,3.46233 -7.33333,7.61713c0,4.1548 3.33333,7.61713 7.33333,7.61713c4,0 7.33333,-3.46233 7.33333,-7.61713c0,-4.1548 -3.33333,-7.61713 -7.33333,-7.61713Z" style="fill:url(#tag1);"/><path id="Coolorus-2.5-3" d="M104.344,79.768c6.784,0 11.776,-2.944 15.552,-7.616l-3.072,-1.92c-2.688,3.712 -7.36,6.208 -12.48,6.208c-10.048,0 -17.792,-7.744 -17.792,-18.752c0,-11.136 7.744,-18.752 17.792,-18.752c5.12,0 9.792,2.496 12.48,6.208l3.072,-1.984c-3.648,-4.544 -8.768,-7.552 -15.552,-7.552c-12.096,0 -21.632,8.96 -21.632,22.08c0,13.12 9.536,22.08 21.632,22.08ZM140.248,79.768c9.152,0 14.912,-7.232 14.912,-16.256c0,-9.024 -5.76,-16.192 -14.912,-16.192c-9.024,0 -14.848,7.168 -14.848,16.192c0,9.024 5.824,16.256 14.848,16.256ZM140.248,76.76c-7.168,0 -11.264,-6.336 -11.264,-13.248c0,-6.848 4.096,-13.184 11.264,-13.184c7.296,0 11.328,6.336 11.328,13.184c0,6.912 -4.032,13.248 -11.328,13.248ZM176.792,79.768c9.152,0 14.912,-7.232 14.912,-16.256c0,-9.024 -5.76,-16.192 -14.912,-16.192c-9.024,0 -14.848,7.168 -14.848,16.192c0,9.024 5.824,16.256 14.848,16.256ZM176.792,76.76c-7.168,0 -11.264,-6.336 -11.264,-13.248c0,-6.848 4.096,-13.184 11.264,-13.184c7.296,0 11.328,6.336 11.328,13.184c0,6.912 -4.032,13.248 -11.328,13.248ZM203.608,79l0,-42.688l-3.328,0l0,42.688l3.328,0ZM227.032,79.768c9.152,0 14.912,-7.232 14.912,-16.256c0,-9.024 -5.76,-16.192 -14.912,-16.192c-9.024,0 -14.848,7.168 -14.848,16.192c0,9.024 5.824,16.256 14.848,16.256ZM227.032,76.76c-7.168,0 -11.264,-6.336 -11.264,-13.248c0,-6.848 4.096,-13.184 11.264,-13.184c7.296,0 11.328,6.336 11.328,13.184c0,6.912 -4.032,13.248 -11.328,13.248ZM253.848,79l0,-22.528c1.408,-2.688 5.632,-5.504 8.768,-5.504c0.64,0 1.088,0 1.664,0.128l0,-3.648c-4.288,0 -7.808,2.496 -10.432,5.952l0,-5.312l-3.328,0l0,30.912l3.328,0ZM295,79l0,-30.912l-3.328,0l0,23.552c-2.048,2.752 -6.08,5.12 -10.048,5.12c-4.48,0 -7.488,-1.664 -7.488,-7.68l0,-20.992l-3.328,0l0,21.76c0,6.976 3.392,9.92 9.728,9.92c4.48,0 8.576,-2.496 11.136,-5.312l0,4.544l3.328,0ZM314.584,79.768c7.744,0 11.584,-4.096 11.584,-9.088c0,-11.904 -19.52,-7.168 -19.52,-14.912c0,-3.2 2.944,-5.632 7.744,-5.632c4.096,0 7.424,1.664 9.216,4.096l1.856,-2.368c-2.24,-2.496 -5.76,-4.544 -11.072,-4.544c-6.976,0 -11.008,3.84 -11.008,8.576c0,11.072 19.52,6.336 19.52,14.784c0,3.584 -3.072,6.272 -8.256,6.272c-4.352,0 -8,-2.048 -9.984,-4.544l-1.984,2.496c3.072,3.392 6.912,4.864 11.904,4.864ZM377.88,79l0,-3.328l-22.464,0c12.352,-9.984 22.272,-18.56 22.272,-27.968c0,-8.448 -7.168,-12.032 -13.44,-12.032c-6.016,0 -11.2,2.496 -14.208,6.592l2.496,2.304c2.304,-3.264 6.4,-5.568 11.712,-5.568c4.672,0 9.728,2.56 9.728,8.704c0,8.256 -9.728,16.576 -24.256,28.288l0,3.008l28.16,0ZM390.36,79.64c1.536,0 2.88,-1.344 2.88,-2.88c0,-1.472 -1.344,-2.752 -2.88,-2.752c-1.536,0 -2.816,1.28 -2.816,2.752c0,1.536 1.28,2.88 2.816,2.88ZM416.536,79.768c7.872,0 14.4,-5.248 14.4,-13.76c0,-8.896 -6.464,-13.632 -13.632,-13.632c-4.416,0 -8.064,1.92 -10.176,3.968l0,-16.704l20.992,0l0,-3.328l-24.64,0l0,22.4l2.752,1.152c3.136,-2.88 6.464,-4.16 10.368,-4.16c6.144,0 10.624,3.968 10.624,10.432c0,5.824 -4.544,10.304 -10.688,10.304c-5.504,0 -9.216,-2.176 -11.968,-6.08l-2.432,2.432c2.944,4.224 7.296,6.976 14.4,6.976Z" style="fill:#f0f0f0;"/></g><defs><linearGradient id="tag1" x1="0" y1="0" x2="1" y2="0" gradientUnits="userSpaceOnUse" gradientTransform="matrix(3.64652e-15,59.5521,-59.5521,3.64652e-15,41.5,26.8971)"><stop offset="0%" style="stop-color:#d3d3d3;stop-opacity:1"/><stop offset="100%" style="stop-color:#888;stop-opacity:1"/></linearGradient></defs></svg>