<?xml version="1.0" encoding="UTF-8" standalone="no"?>
<svg width="440px" height="209px" viewBox="0 0 440 209" version="1.1" xmlns="http://www.w3.org/2000/svg" xmlns:xlink="http://www.w3.org/1999/xlink" xmlns:sketch="http://www.bohemiancoding.com/sketch/ns">
    <!-- Generator: Sketch 3.2.2 (9983) - http://www.bohemiancoding.com/sketch -->
    <title>coolorus_big_header_dark</title>
    <desc>Created with Sketch.</desc>
    <defs>
        <linearGradient x1="50%" y1="0%" x2="50%" y2="100%" id="linearGradient-1">
            <stop stop-color="#D3D3D3" offset="0%"></stop>
            <stop stop-color="#888888" offset="100%"></stop>
        </linearGradient>
    </defs>
    <g id="Page-1" stroke="none" stroke-width="1" fill="none" fill-rule="evenodd" sketch:type="MSPage">
        <g id="coolorus_header_dark-2" sketch:type="MSLayerGroup" transform="translate(42.000000, 6.000000)">
            <path d="M166.678363,0.897058824 C136.444444,0.897058824 112,26.9726402 112,58.3970587 C112,90.4900819 136.444444,115.897059 166.678363,115.897059 C171.824561,115.897059 176.327485,115.228454 180.830409,113.891245 C176.327485,109.211012 173.754386,103.19357 173.754386,95.8389193 L173.754386,95.8389193 C171.181287,96.5075237 169.251462,96.5075237 166.678363,96.5075237 C146.736842,96.5075237 130.011696,79.123803 130.011696,58.3970587 C130.011696,37.0017098 146.093567,20.2865937 166.678363,20.2865937 C187.263158,20.2865937 203.345029,37.6703146 203.345029,58.3970587 C203.345029,63.0772912 202.701754,67.0889193 201.415205,71.1005471 C207.847953,71.7691519 213.637427,75.7807797 217.497076,81.1296167 C220.71345,73.7749656 222,66.4203145 222,58.3970587 C221.356725,26.9726402 196.912281,0.897058824 166.678363,0.897058824 L166.678363,0.897058824 L166.678363,0.897058824 Z M197.555556,81.1296167 C189.836257,81.1296167 183.403509,87.8156634 183.403509,95.8389193 C183.403509,103.862175 189.836257,110.548221 197.555556,110.548221 C205.274854,110.548221 211.707602,103.862175 211.707602,95.8389193 C211.707602,87.8156634 205.274854,81.1296167 197.555556,81.1296167 L197.555556,81.1296167 L197.555556,81.1296167 Z" id="coolorus-logo" fill-opacity="0.603317482" fill="#000000" sketch:type="MSShapeGroup"></path>
            <path d="M166.678363,2.89705882 C136.444444,2.89705882 112,28.9726402 112,60.3970587 C112,92.4900819 136.444444,117.897059 166.678363,117.897059 C171.824561,117.897059 176.327485,117.228454 180.830409,115.891245 C176.327485,111.211012 173.754386,105.19357 173.754386,97.8389193 L173.754386,97.8389193 C171.181287,98.5075237 169.251462,98.5075237 166.678363,98.5075237 C146.736842,98.5075237 130.011696,81.123803 130.011696,60.3970587 C130.011696,39.0017098 146.093567,22.2865937 166.678363,22.2865937 C187.263158,22.2865937 203.345029,39.6703146 203.345029,60.3970587 C203.345029,65.0772912 202.701754,69.0889193 201.415205,73.1005471 C207.847953,73.7691519 213.637427,77.7807797 217.497076,83.1296167 C220.71345,75.7749656 222,68.4203145 222,60.3970587 C221.356725,28.9726402 196.912281,2.89705882 166.678363,2.89705882 L166.678363,2.89705882 L166.678363,2.89705882 Z M197.555556,83.1296167 C189.836257,83.1296167 183.403509,89.8156634 183.403509,97.8389193 C183.403509,105.862175 189.836257,112.548221 197.555556,112.548221 C205.274854,112.548221 211.707602,105.862175 211.707602,97.8389193 C211.707602,89.8156634 205.274854,83.1296167 197.555556,83.1296167 L197.555556,83.1296167 L197.555556,83.1296167 Z" id="coolorus-logo-2" fill="url(#linearGradient-1)" sketch:type="MSShapeGroup"></path>
            <path d="M25.344,197.768 C32.128,197.768 37.12,194.824 40.896,190.152 L37.824,188.232 C35.136,191.944 30.464,194.44 25.344,194.44 C15.296,194.44 7.552,186.696 7.552,175.688 C7.552,164.552 15.296,156.936 25.344,156.936 C30.464,156.936 35.136,159.432 37.824,163.144 L40.896,161.16 C37.248,156.616 32.128,153.608 25.344,153.608 C13.248,153.608 3.712,162.568 3.712,175.688 C3.712,188.808 13.248,197.768 25.344,197.768 L25.344,197.768 Z M61.248,197.768 C70.4,197.768 76.16,190.536 76.16,181.512 C76.16,172.488 70.4,165.32 61.248,165.32 C52.224,165.32 46.4,172.488 46.4,181.512 C46.4,190.536 52.224,197.768 61.248,197.768 L61.248,197.768 Z M61.248,194.76 C54.08,194.76 49.984,188.424 49.984,181.512 C49.984,174.664 54.08,168.328 61.248,168.328 C68.544,168.328 72.576,174.664 72.576,181.512 C72.576,188.424 68.544,194.76 61.248,194.76 L61.248,194.76 Z M97.792,197.768 C106.944,197.768 112.704,190.536 112.704,181.512 C112.704,172.488 106.944,165.32 97.792,165.32 C88.768,165.32 82.944,172.488 82.944,181.512 C82.944,190.536 88.768,197.768 97.792,197.768 L97.792,197.768 Z M97.792,194.76 C90.624,194.76 86.528,188.424 86.528,181.512 C86.528,174.664 90.624,168.328 97.792,168.328 C105.088,168.328 109.12,174.664 109.12,181.512 C109.12,188.424 105.088,194.76 97.792,194.76 L97.792,194.76 Z M124.608,197 L124.608,154.312 L121.28,154.312 L121.28,197 L124.608,197 Z M148.032,197.768 C157.184,197.768 162.944,190.536 162.944,181.512 C162.944,172.488 157.184,165.32 148.032,165.32 C139.008,165.32 133.184,172.488 133.184,181.512 C133.184,190.536 139.008,197.768 148.032,197.768 L148.032,197.768 Z M148.032,194.76 C140.864,194.76 136.768,188.424 136.768,181.512 C136.768,174.664 140.864,168.328 148.032,168.328 C155.328,168.328 159.36,174.664 159.36,181.512 C159.36,188.424 155.328,194.76 148.032,194.76 L148.032,194.76 Z M174.848,197 L174.848,174.472 C176.256,171.784 180.48,168.968 183.616,168.968 C184.256,168.968 184.704,168.968 185.28,169.096 L185.28,165.448 C180.992,165.448 177.472,167.944 174.848,171.4 L174.848,166.088 L171.52,166.088 L171.52,197 L174.848,197 Z M216,197 L216,166.088 L212.672,166.088 L212.672,189.64 C210.624,192.392 206.592,194.76 202.624,194.76 C198.144,194.76 195.136,193.096 195.136,187.08 L195.136,166.088 L191.808,166.088 L191.808,187.848 C191.808,194.824 195.2,197.768 201.536,197.768 C206.016,197.768 210.112,195.272 212.672,192.456 L212.672,197 L216,197 Z M235.584,197.768 C243.328,197.768 247.168,193.672 247.168,188.68 C247.168,176.776 227.648,181.512 227.648,173.768 C227.648,170.568 230.592,168.136 235.392,168.136 C239.488,168.136 242.816,169.8 244.608,172.232 L246.464,169.864 C244.224,167.368 240.704,165.32 235.392,165.32 C228.416,165.32 224.384,169.16 224.384,173.896 C224.384,184.968 243.904,180.232 243.904,188.68 C243.904,192.264 240.832,194.952 235.648,194.952 C231.296,194.952 227.648,192.904 225.664,190.408 L223.68,192.904 C226.752,196.296 230.592,197.768 235.584,197.768 L235.584,197.768 Z M298.88,197 L298.88,193.672 L276.416,193.672 C288.768,183.688 298.688,175.112 298.688,165.704 C298.688,157.256 291.52,153.672 285.248,153.672 C279.232,153.672 274.048,156.168 271.04,160.264 L273.536,162.568 C275.84,159.304 279.936,157 285.248,157 C289.92,157 294.976,159.56 294.976,165.704 C294.976,173.96 285.248,182.28 270.72,193.992 L270.72,197 L298.88,197 Z M311.36,197.64 C312.896,197.64 314.24,196.296 314.24,194.76 C314.24,193.288 312.896,192.008 311.36,192.008 C309.824,192.008 308.544,193.288 308.544,194.76 C308.544,196.296 309.824,197.64 311.36,197.64 L311.36,197.64 Z M337.536,197.768 C345.408,197.768 351.936,192.52 351.936,184.008 C351.936,175.112 345.472,170.376 338.304,170.376 C333.888,170.376 330.24,172.296 328.128,174.344 L328.128,157.64 L349.12,157.64 L349.12,154.312 L324.48,154.312 L324.48,176.712 L327.232,177.864 C330.368,174.984 333.696,173.704 337.6,173.704 C343.744,173.704 348.224,177.672 348.224,184.136 C348.224,189.96 343.68,194.44 337.536,194.44 C332.032,194.44 328.32,192.264 325.568,188.36 L323.136,190.792 C326.08,195.016 330.432,197.768 337.536,197.768 L337.536,197.768 Z" id="Coolorus-2.5-3" fill="#F0F0F0" sketch:type="MSShapeGroup"></path>
        </g>
    </g>
</svg>